<svg xmlns="http://www.w3.org/2000/svg" width="24.009" height="20" viewBox="0 0 24.009 20">
  <path id="Path_12" data-name="Path 12" d="M91.524,78.257a4.521,4.521,0,0,1-2.7-.782A5.974,5.974,0,0,0,91.392,75.6a3.208,3.208,0,0,1-2.547-.325,6.292,6.292,0,0,0,2.971-2.072,2.275,2.275,0,0,1-2.022-.325,10,10,0,0,0,2.772-1.773,3.471,3.471,0,0,1-1.648-.325,5.362,5.362,0,0,1,3.271-1.673,4.978,4.978,0,0,0-2-.7,5.952,5.952,0,0,1,3.321-1.223,5.9,5.9,0,0,1-2.671-1.4,5.716,5.716,0,0,0,1.923-.125,5.637,5.637,0,0,1,2.122-.025c-1.065-.133-2.131-1.864-2.131-1.864a13.115,13.115,0,0,0,4.028-.033,6.454,6.454,0,0,1,4.594,1.248,6.121,6.121,0,0,1,1.481-2.563,3.048,3.048,0,0,0,.949,1.531,3.827,3.827,0,0,1,1.248-1.048,7.328,7.328,0,0,0-.016,3.262c2.148,1.1,1.548,3.026,4.211,5.522,2.144,2.01,1.779,3.146.815,4.057-1.683,1.59-1.972.617-2.544.281-2.616-1.542-3.165-.318-5.529-1.175-3.037-1.1-4.5.757.669,7.024,0,0-7.324,1.931-12.716-1.464Z" transform="translate(-88.82 -62.428)" fill="#fff"/>
</svg>
