<svg id="Layer_2" data-name="Layer 2" xmlns="http://www.w3.org/2000/svg" width="226.338" height="60" viewBox="0 0 226.338 60">
  <g id="Layer_5" data-name="Layer 5">
    <path id="Path_1" data-name="Path 1" d="M54.74,16.64h5.41l2.5,17.28H58l-.49-3H53l-1.35,3H46.6ZM57.15,27l-.54-4.63L54.67,27Z" transform="translate(8.571 4.231)" fill="#fff"/>
    <path id="Path_2" data-name="Path 2" d="M66.57,16.64h4.58L69.26,28.58c-.19,1.25.59,1.23,1.27,1.23h4.86l-.66,4.11h-7c-2.15,0-3.76-1-3.33-3.69Z" transform="translate(11.508 4.231)" fill="#fff"/>
    <path id="Path_3" data-name="Path 3" d="M79,16.64h7.22c2.41,0,5.24,1.3,4.44,6.3-.88,5.55-4.11,5.29-6.26,5.12a14.63,14.63,0,0,1-2.57-.47l-1,6.33H76.22Zm5.54,7.55c.9,0,1.32-.68,1.51-1.89s-.09-1.77-.92-1.77H82.92l-.59,3.66Z" transform="translate(13.903 4.231)" fill="#fff"/>
    <path id="Path_4" data-name="Path 4" d="M93.14,16.64h4.58l-1.09,6.87h4l1.09-6.87h4.58l-2.74,17.28H99l1-6.31H96l-1,6.31H90.4Z" transform="translate(16.612 4.231)" fill="#fff"/>
    <path id="Path_5" data-name="Path 5" d="M113.08,16.64h5.41L121,33.92h-4.7l-.5-3h-4.43l-1.35,3h-5.07ZM115.49,27l-.55-4.63L113,27Z" transform="translate(19.303 4.231)" fill="#fff"/>
    <path id="Path_6" data-name="Path 6" d="M123.77,20.7c0-3.43,2-4.2,4.6-4.2,1.25,0,4.39.33,5.46.49v.69c-1.51-.1-5.46-.22-5.46-.22-2.19-.09-3.63.55-3.63,3.24v1.56c0,2.36,1.2,2.69,3.11,2.69h2.91c3.14,0,3.77,1.74,3.77,3.68v1.6c0,3.36-2.29,3.88-4.62,3.88a55.38,55.38,0,0,1-5.67-.43V33c1,.09,3.47.19,5.67.19,1.72,0,3.66-.38,3.66-2.91v-1.6c0-1.77-.74-2.69-2.81-2.69H127.9c-3.71,0-4.13-1.8-4.13-3.68Z" transform="translate(22.106 4.236)" fill="#fff"/>
    <path id="Path_7" data-name="Path 7" d="M136.3,16.64h12.16v1h-5.67V33.92h-1V17.61H136.3Z" transform="translate(24.531 4.231)" fill="#fff"/>
    <path id="Path_8" data-name="Path 8" d="M151.57,16.64h1v9.72c0,6.73,2.15,6.71,5.21,6.71,2.74,0,5.06-.26,5.06-6.71V16.64h1v9.72c0,7.63-3.19,7.67-6.05,7.67-3.21,0-6.18.12-6.18-7.67Z" transform="translate(27.296 4.245)" fill="#fff"/>
    <path id="Path_9" data-name="Path 9" d="M167.62,16.64h6.13c5.34,0,6.12,5.17,6.12,8.71,0,3.92-1.68,8.57-6.12,8.57h-6.13Zm6.13,16.29c3.66,0,5.15-4.07,5.15-7.61,0-5.4-1.91-7.71-5.15-7.71h-5.17V32.93Z" transform="translate(32.668 4.231)" fill="#fff"/>
    <path id="Path_10" data-name="Path 10" d="M182.91,20.7c0-3.43,2-4.2,4.6-4.2,1.25,0,4.39.33,5.45.49v.69c-1.51-.1-5.45-.22-5.45-.22-2.19-.09-3.63.55-3.63,3.24v1.56c0,2.36,1.2,2.69,3.11,2.69h2.91c3.13,0,3.77,1.74,3.77,3.68v1.6c0,3.36-2.29,3.88-4.62,3.88a55.38,55.38,0,0,1-5.67-.43V33c1,.09,3.47.19,5.67.19,1.72,0,3.65-.38,3.65-2.91v-1.6c0-1.77-.73-2.69-2.8-2.69H187c-3.71,0-4.13-1.8-4.13-3.68Z" transform="translate(32.668 4.236)" fill="#fff"/>
    <path id="Path_11" data-name="Path 11" d="M15.36,52.369C6.73,41.1,1.68,37.269,2.36,21.141L0,21.866A39.078,39.078,0,0,1,12.28,9.349H8.17A28.39,28.39,0,0,1,22.76,3.074l-2.28-.736c4.91-1.449,8.3-.409,11,1.695C32.29,2.337,34.05,1.04,36.37,0c0,1.788.08,3.576.13,5.364a9.925,9.925,0,0,0,5.09-3.7C41,6.112,39.54,8.333,37.8,9.618a7.143,7.143,0,0,0,.71,2.127,4.625,4.625,0,0,0,.22,3.015c1.78,2.337,2.15,1.788,1.24,4.593a10.529,10.529,0,0,0-1.46,4.675,97,97,0,0,0,.32,12.855c-.78,3.822-5.21,5.691-7.73,3.307-1.26-1.169-.85-2.185-.8-3.985.13-4.125-2.05-8.029-4.68-10.682a9.285,9.285,0,0,0-1.32,3.962C23.1,42.341,35.09,39.642,22.96,60c-.57-5.575-3.36-10.518-7.81-14.947-6.33-6.311-9.7-12.855-5.1-21.515C1.59,32.723,9.91,44.27,15.36,52.369ZM35.81,38.344l2.06-1.66c-.16-4.172-.26-8.45-.32-12.855.17-1.017.37-2.232.63-3.915,2.17-1.262.81-2.8-.12-4.149-.2-.806-.39-1.613-.59-2.419l-1.26.479a13.186,13.186,0,0,0-3.82-2.419,4.361,4.361,0,0,0,0,3.436l-1.77.351a7.324,7.324,0,0,1,3.61,2.069c.11,1.835.32,5.1-1.94,1.741-.12-.164-.23-.339-.34-.5-.24.409-.47.83-.7,1.239,1,1.87.73,1.952,2.47,2.513.2,3.8.39,7.585.59,11.383a4.053,4.053,0,0,0,1.14,2.407,3.033,3.033,0,0,1,.36,2.337Zm1.58-32.5,1.18.912a11.4,11.4,0,0,0,1.7-2.793,5.728,5.728,0,0,1-2.88,1.882ZM32.67,7.012c-.24-.795-.48-1.578-.73-2.337A7.042,7.042,0,0,1,35,1.882a7.017,7.017,0,0,0-2.33,5.131Z" fill="#fff" fill-rule="evenodd"/>
  </g>
</svg>
