<svg id="Group_8" data-name="Group 8" xmlns="http://www.w3.org/2000/svg" width="33.333" height="30" viewBox="0 0 33.333 30">
  <path id="Path_14" data-name="Path 14" d="M24.635,42.085l.117-.183,7.033-11a.24.24,0,0,1,.422.031c1.175,2.633,2.189,5.908,1.714,7.947A12.422,12.422,0,0,1,32.538,41.9c-.081.153-.169.3-.264.447a.239.239,0,0,1-.2.106H24.841A.24.24,0,0,1,24.635,42.085Z" transform="translate(-22.652 -24.954)" fill="#fff"/>
  <path id="Path_15" data-name="Path 15" d="M54.333,39.175v1.742a.25.25,0,0,1-.15.228A8.66,8.66,0,0,0,51,43.311C49.022,46.064,47.511,50,44.133,50H30.042A9.056,9.056,0,0,1,21,40.928v-.161a.242.242,0,0,1,.242-.242H29.1a.267.267,0,0,1,.256.3,2.681,2.681,0,0,0,.281,1.508,2.764,2.764,0,0,0,2.478,1.539H36V40.833H32.156a.248.248,0,0,1-.2-.389c.042-.064.089-.131.139-.206.364-.517.883-1.319,1.4-2.233a17.492,17.492,0,0,0,.969-1.936c.056-.119.1-.242.144-.361.075-.211.153-.408.208-.606.056-.167.1-.342.144-.506a7.824,7.824,0,0,0,.186-1.772c0-.242-.011-.494-.033-.736-.011-.264-.044-.528-.078-.792-.022-.233-.064-.464-.108-.706-.056-.353-.133-.7-.222-1.056l-.031-.133c-.067-.242-.122-.472-.2-.714-.219-.758-.472-1.5-.739-2.189-.1-.275-.208-.539-.319-.8-.164-.4-.331-.758-.483-1.1-.078-.156-.144-.3-.211-.442-.075-.164-.153-.328-.231-.483-.056-.119-.119-.231-.164-.342l-.475-.878a.155.155,0,0,1,.175-.225L35,23.033h.008c.006,0,.008,0,.011,0l.392.108.431.122.158.044V21.544A1.536,1.536,0,0,1,37.528,20a1.508,1.508,0,0,1,1.081.453,1.553,1.553,0,0,1,.447,1.092v2.622l.317.089a.253.253,0,0,1,.072.036c.078.058.189.144.331.25.111.089.231.2.375.308.286.231.628.528,1,.869.1.086.2.175.286.264.483.45,1.025.978,1.542,1.561.144.164.286.331.431.506s.3.353.431.528c.175.233.364.475.528.728.078.119.167.242.242.361.211.319.4.65.575.981.075.153.153.319.219.483a7.068,7.068,0,0,1,.453,1.342,1.677,1.677,0,0,1,.064.3v.022a2.543,2.543,0,0,1,.056.419A4.487,4.487,0,0,1,45.9,34.6a5.051,5.051,0,0,1-.164.581c-.067.189-.133.386-.219.572a7.758,7.758,0,0,1-.6,1.133c-.075.133-.164.275-.253.408s-.2.275-.286.406c-.122.167-.253.342-.386.5a5.276,5.276,0,0,1-.375.472c-.186.219-.364.428-.55.628-.111.131-.231.264-.353.383s-.242.253-.353.364c-.186.186-.342.331-.472.45l-.306.281a.249.249,0,0,1-.164.061H39.056v3.036h2.978a2.786,2.786,0,0,0,1.811-.669,21.723,21.723,0,0,0,1.842-1.811.231.231,0,0,1,.114-.069l8.225-2.378A.243.243,0,0,1,54.333,39.175Z" transform="translate(-21 -20)" fill="#fff"/>
</svg>
